<svg xmlns="http://www.w3.org/2000/svg" width="64" height="64" enable-background="new 0 0 64 64" viewBox="0 0 64 64" id="social-post-monitoring"><path fill="#E6E9ED" d="M32,1c-6.32,0-11.77,3.68-14.37,9c2.601,5.32,8.05,9,14.37,9s11.77-3.68,14.37-9C43.77,4.68,38.32,1,32,1z
			"></path><polygon fill="#E6E9ED" points="59 31.99 5 31.99 1 31.99 1 54 5 54 59 54 63 54 63 31.99"></polygon><circle cx="32" cy="10" r="5" fill="#5D9CEC"></circle><rect width="46" height="4" x="9" y="22.99" fill="#E6E9ED"></rect><polygon fill="#CCD1D9" points="59 26.99 59 31.99 5 31.99 5 26.99 9 26.99 55 26.99"></polygon><polygon fill="#CCD1D9" points="59 54 59 59 55 59 9 59 5 59 5 54"></polygon><rect width="46" height="4" x="9" y="59" fill="#E6E9ED"></rect><path fill="#EAC6BB" d="M14,42c0,1.1-0.9,2-2,2s-2-0.9-2-2c0-1.11,0.9-2,2-2S14,40.89,14,42z"></path><path fill="#656D78" d="M12,37c3.31,0,6,2.69,6,6c0,1.79-0.78,3.4-2.03,4.49C15.71,45.52,14.04,44,12,44c1.1,0,2-0.9,2-2
			c0-1.11-0.9-2-2-2s-2,0.89-2,2c0,1.1,0.9,2,2,2c-2.04,0-3.71,1.52-3.97,3.49C6.78,46.4,6,44.79,6,43C6,39.69,8.69,37,12,37z"></path><path fill="#5D9CEC" d="M15.97,47.49v0.01C14.92,48.43,13.53,49,12,49s-2.92-0.57-3.97-1.5v-0.01C8.29,45.52,9.96,44,12,44
			S15.71,45.52,15.97,47.49z"></path><g><path d="M63,55H1c-0.553,0-1-0.447-1-1V31.994c0-0.552,0.447-1,1-1h62c0.553,0,1,0.448,1,1V54C64,54.553,63.553,55,63,55z M2,53
				h60V32.994H2V53z"></path><path d="M12 50c-3.859 0-7-3.141-7-7 0-3.862 3.141-7.004 7-7.004s7 3.142 7 7.004C19 46.859 15.859 50 12 50zM12 37.996c-2.757 0-5 2.245-5 5.004 0 2.757 2.243 5 5 5s5-2.243 5-5C17 40.241 14.757 37.996 12 37.996zM30 37.996h-7c-.553 0-1-.447-1-1s.447-1 1-1h7c.553 0 1 .447 1 1S30.553 37.996 30 37.996zM58 41.998H23c-.553 0-1-.447-1-1s.447-1 1-1h35c.553 0 1 .447 1 1S58.553 41.998 58 41.998zM58 46H23c-.553 0-1-.447-1-1s.447-1 1-1h35c.553 0 1 .447 1 1S58.553 46 58 46zM39 50H23c-.553 0-1-.447-1-1s.447-1 1-1h16c.553 0 1 .447 1 1S39.553 50 39 50z"></path><path d="M15.968,48.498c-0.497,0-0.928-0.37-0.991-0.876C14.789,46.127,13.51,45,12,45s-2.789,1.127-2.977,2.622
				c-0.068,0.548-0.563,0.932-1.116,0.868c-0.548-0.068-0.937-0.568-0.868-1.116C7.352,44.88,9.484,43,12,43s4.648,1.88,4.961,4.374
				c0.068,0.548-0.32,1.048-0.868,1.116C16.051,48.495,16.009,48.498,15.968,48.498z"></path><path d="M12 45c-1.654 0-3-1.347-3-3.002 0-1.654 1.346-3 3-3s3 1.346 3 3C15 43.653 13.654 45 12 45zM12 40.998c-.552 0-1 .448-1 1C11 42.551 11.448 43 12 43s1-.449 1-1.002C13 41.446 12.552 40.998 12 40.998zM5 32.994c-.553 0-1-.448-1-1v-5c0-.552.447-1 1-1s1 .448 1 1v5C6 32.546 5.553 32.994 5 32.994z"></path><path d="M59,27.994H5c-0.553,0-1-0.448-1-1s0.447-1,1-1h54c0.553,0,1,0.448,1,1S59.553,27.994,59,27.994z"></path><path d="M59 32.994c-.553 0-1-.448-1-1v-5c0-.552.447-1 1-1s1 .448 1 1v5C60 32.546 59.553 32.994 59 32.994zM9 27.994c-.553 0-1-.448-1-1v-4c0-.552.447-1 1-1s1 .448 1 1v4C10 27.546 9.553 27.994 9 27.994z"></path><path d="M55,23.994H9c-0.553,0-1-0.448-1-1s0.447-1,1-1h46c0.553,0,1,0.448,1,1S55.553,23.994,55,23.994z"></path><path d="M55 27.994c-.553 0-1-.448-1-1v-4c0-.552.447-1 1-1s1 .448 1 1v4C56 27.546 55.553 27.994 55 27.994zM55 64c-.553 0-1-.447-1-1v-4c0-.553.447-1 1-1s1 .447 1 1v4C56 63.553 55.553 64 55 64z"></path><path d="M55,64H9c-0.553,0-1-0.447-1-1s0.447-1,1-1h46c0.553,0,1,0.447,1,1S55.553,64,55,64z"></path><path d="M9,64c-0.553,0-1-0.447-1-1v-4c0-0.553,0.447-1,1-1s1,0.447,1,1v4C10,63.553,9.553,64,9,64z"></path><g><path d="M59,60c-0.553,0-1-0.447-1-1v-5c0-0.553,0.447-1,1-1s1,0.447,1,1v5C60,59.553,59.553,60,59,60z"></path></g><g><path d="M59,60H5c-0.553,0-1-0.447-1-1s0.447-1,1-1h54c0.553,0,1,0.447,1,1S59.553,60,59,60z"></path></g><g><path d="M5,60c-0.553,0-1-0.447-1-1v-5c0-0.553,0.447-1,1-1s1,0.447,1,1v5C6,59.553,5.553,60,5,60z"></path></g><g><path d="M32,20c-6.54,0-12.391-3.664-15.27-9.562c-0.136-0.277-0.136-0.6,0-0.877C19.609,3.664,25.46,0,32,0
				s12.391,3.664,15.27,9.562c0.136,0.277,0.136,0.6,0,0.877C44.391,16.336,38.54,20,32,20z M18.75,10c2.612,4.948,7.645,8,13.25,8
				s10.638-3.052,13.25-8C42.638,5.052,37.605,2,32,2S21.362,5.052,18.75,10z"></path><path d="M32,16c-3.309,0-6-2.691-6-6s2.691-6,6-6s6,2.691,6,6S35.309,16,32,16z M32,6c-2.206,0-4,1.794-4,4s1.794,4,4,4
				s4-1.794,4-4S34.206,6,32,6z"></path></g></g></svg>